<svg width="1642" height="420" viewBox="0 0 1642 420" fill="none" xmlns="http://www.w3.org/2000/svg">
<path d="M616.317 237.709C637.925 237.709 651.581 224.225 651.581 201.407V118.171H678.894V201.407C678.894 238.962 655.039 262.169 616.274 262.169C577.336 262.169 552.832 238.919 552.832 201.407V118.171H580.145V201.407C580.188 224.052 594.665 237.709 616.317 237.709Z" fill="black"/>
<path d="M758.887 118.171V260.959H731.574V118.171H758.887Z" fill="black"/>
<path d="M840.269 118.171L913.91 215.884V118.171H940.445V260.959H914.558L841.133 163.462V260.959H814.426V118.171H840.269Z" fill="black"/>
<path d="M1023.25 118.171V260.959H995.934V118.171H1023.25Z" fill="black"/>
<path d="M1177.23 118.17L1177.01 142.025H1106.05V180.575H1170.7V204.431H1106.05V260.915H1078.74V118.126H1177.23V118.17Z" fill="black"/>
<path d="M1245.38 118.171V260.959H1218.06V118.171H1245.38Z" fill="black"/>
<path d="M1405.48 118.171V142.027H1328.17V177.335H1397.53V201.191H1328.17V237.104H1407.9V260.959H1300.81V118.171H1405.48Z" fill="black"/>
<path d="M1589.9 189.565C1589.9 231.183 1558.49 260.959 1514.45 260.959H1456.11V118.171H1515.44C1558.7 118.171 1589.9 147.774 1589.9 189.565ZM1561.94 189.781C1561.94 161.82 1541.76 142.243 1515.01 142.243H1483.38V236.888H1516C1542.37 236.888 1561.94 217.526 1561.94 189.781Z" fill="black"/>
<path d="M296.773 73.8289C306.627 84.5899 316.307 98.6354 324.778 116.095L416.31 304.261H517.436L454.773 168.474C426.034 109.44 382.471 29.2722 316.134 62.0306C312.677 63.7161 302.824 68.0378 296.773 73.8289Z" fill="url(#paint0_linear_103_15080)"/>
<path d="M377.317 73.5694L377.23 73.4397L377.36 73.3965L377.317 73.5694Z" fill="#00A14B"/>
<path d="M264.484 352.448C261.891 354.134 273.257 346.7 273.257 346.7C263.404 335.939 253.723 321.894 245.253 304.434L153.72 116.268H51.8594L115.258 252.055C145.509 314.245 192.14 399.728 264.484 352.448Z" fill="url(#paint1_linear_103_15080)"/>
<path d="M231.853 60.6912C208.343 76.0764 210.028 120.158 208.516 164.412C206.441 224.786 206.441 224.786 206.441 224.786L245.207 304.478C253.677 321.894 263.357 335.94 273.211 346.744C280.298 339.008 284.577 325.913 284.49 306.811L284.447 280.579L284.361 212.771L284.317 212.642L284.231 143.063L284.188 114.064C284.145 94.2708 288.985 81.1761 296.721 73.8292C271.482 46.1272 251.17 48.1151 231.853 60.6912Z" fill="url(#paint2_linear_103_15080)"/>
<path d="M337.914 359.276C361.424 343.891 359.739 299.81 361.251 255.556C363.326 195.182 363.326 195.182 363.326 195.182L324.561 115.49C316.09 98.0733 306.41 84.0279 296.556 73.2236C289.469 80.9595 284.196 93.9246 284.326 113.026L284.672 305.774C284.715 325.567 280.826 338.792 273.09 346.138C298.285 373.884 318.597 371.896 337.914 359.276Z" fill="url(#paint3_linear_103_15080)"/>
<defs>
<linearGradient id="paint0_linear_103_15080" x1="484.963" y1="322.7" x2="332.53" y2="52.4072" gradientUnits="userSpaceOnUse">
<stop stop-color="#3C38E0"/>
<stop offset="1" stop-color="#26DEE0"/>
</linearGradient>
<linearGradient id="paint1_linear_103_15080" x1="85.7301" y1="97.581" x2="238.18" y2="367.903" gradientUnits="userSpaceOnUse">
<stop stop-color="#3C38E0"/>
<stop offset="1" stop-color="#2623E0"/>
</linearGradient>
<linearGradient id="paint2_linear_103_15080" x1="302.818" y1="15.3779" x2="217.179" y2="319.593" gradientUnits="userSpaceOnUse">
<stop stop-color="#3C38E0"/>
<stop offset="1" stop-color="#26DEE0"/>
</linearGradient>
<linearGradient id="paint3_linear_103_15080" x1="267.522" y1="404.58" x2="353.161" y2="100.364" gradientUnits="userSpaceOnUse">
<stop stop-color="#3C38E0"/>
<stop offset="1" stop-color="#2623E0"/>
</linearGradient>
</defs>
</svg>
