<svg width="1692" height="420" viewBox="0 0 1692 420" fill="none" xmlns="http://www.w3.org/2000/svg">
<path d="M666.319 257.582C687.927 257.582 701.583 244.098 701.583 221.28V138.044H728.896V221.28C728.896 258.835 705.04 282.043 666.275 282.043C627.337 282.043 602.834 258.792 602.834 221.28V138.044H630.146V221.28C630.19 243.926 644.667 257.582 666.319 257.582Z" fill="white"/>
<path d="M808.887 138.044V280.833H781.574V138.044H808.887Z" fill="white"/>
<path d="M890.271 138.044L963.912 235.758V138.044H990.447V280.833H964.56L891.136 183.336V280.833H864.428V138.044H890.271Z" fill="white"/>
<path d="M1073.25 138.044V280.833H1045.94V138.044H1073.25Z" fill="white"/>
<path d="M1227.23 138.043L1227.01 161.899H1156.05V200.448H1220.7V224.304H1156.05V280.789H1128.74V138H1227.23V138.043Z" fill="white"/>
<path d="M1295.38 138.044V280.833H1268.06V138.044H1295.38Z" fill="white"/>
<path d="M1455.48 138.044V161.9H1378.17V197.208H1447.53V221.064H1378.17V256.977H1457.91V280.833H1350.81V138.044H1455.48Z" fill="white"/>
<path d="M1639.91 209.439C1639.91 251.056 1608.49 280.833 1564.45 280.833H1506.11V138.044H1565.44C1608.7 138.044 1639.91 167.648 1639.91 209.439ZM1611.94 209.655C1611.94 181.693 1591.76 162.116 1565.01 162.116H1533.38V256.761H1566C1592.37 256.761 1611.94 237.4 1611.94 209.655Z" fill="white"/>
<path d="M296.775 73.8289C306.629 84.5899 316.309 98.6354 324.78 116.095L416.312 304.261H517.438L454.775 168.474C426.036 109.44 382.473 29.2723 316.136 62.0307C312.679 63.7161 302.826 68.0378 296.775 73.8289Z" fill="url(#paint0_linear_3_2)"/>
<path d="M264.485 352.449C261.892 354.134 273.258 346.701 273.258 346.701C263.404 335.94 253.724 321.894 245.253 304.435L153.721 116.268H51.8599L115.258 252.056C145.51 314.245 192.14 399.728 264.485 352.449Z" fill="url(#paint1_linear_3_2)"/>
<path d="M231.854 60.6913C208.344 76.0765 210.03 120.158 208.517 164.412C206.443 224.786 206.443 224.786 206.443 224.786L245.208 304.478C253.678 321.894 263.359 335.94 273.212 346.744C280.3 339.008 284.578 325.913 284.492 306.812L284.449 280.579L284.362 212.772L284.319 212.642L284.232 143.063L284.189 114.064C284.146 94.2709 288.986 81.1762 296.722 73.8293C271.484 46.1273 251.172 48.1152 231.854 60.6913Z" fill="url(#paint2_linear_3_2)"/>
<path d="M337.915 359.276C361.425 343.891 359.739 299.81 361.252 255.556C363.326 195.182 363.326 195.182 363.326 195.182L324.561 115.49C316.091 98.0733 306.41 84.0279 296.557 73.2236C289.47 80.9595 284.197 93.9246 284.327 113.026L284.673 305.774C284.716 325.567 280.826 338.792 273.091 346.138C298.286 373.884 318.597 371.896 337.915 359.276Z" fill="url(#paint3_linear_3_2)"/>
<defs>
<linearGradient id="paint0_linear_3_2" x1="484.965" y1="322.7" x2="332.532" y2="52.4072" gradientUnits="userSpaceOnUse">
<stop stop-color="#3C38E0"/>
<stop offset="1" stop-color="#26DEE0"/>
</linearGradient>
<linearGradient id="paint1_linear_3_2" x1="85.7306" y1="97.5812" x2="238.18" y2="367.903" gradientUnits="userSpaceOnUse">
<stop stop-color="#3C38E0"/>
<stop offset="1" stop-color="#2623E0"/>
</linearGradient>
<linearGradient id="paint2_linear_3_2" x1="302.819" y1="15.378" x2="217.181" y2="319.593" gradientUnits="userSpaceOnUse">
<stop stop-color="#3C38E0"/>
<stop offset="1" stop-color="#26DEE0"/>
</linearGradient>
<linearGradient id="paint3_linear_3_2" x1="267.523" y1="404.58" x2="353.161" y2="100.364" gradientUnits="userSpaceOnUse">
<stop stop-color="#3C38E0"/>
<stop offset="1" stop-color="#2623E0"/>
</linearGradient>
</defs>
</svg>
