<svg width="420" height="420" viewBox="0 0 420 420" fill="none" xmlns="http://www.w3.org/2000/svg">
<path d="M218.699 112.45C225.794 120.197 232.737 130.291 238.832 142.819L304.632 278.036H377.298L332.262 180.466C311.618 138.027 280.305 80.4198 232.639 103.954C230.14 105.182 223.056 108.311 218.699 112.45Z" fill="url(#paint0_linear_59_15041)"/>
<path d="M276.611 112.266L276.535 112.179L276.622 112.146L276.611 112.266Z" fill="#00A14B"/>
<path d="M195.503 312.718C193.635 313.935 201.816 308.589 201.816 308.589C194.721 300.842 187.778 290.749 181.683 278.221L115.895 143.004H42.707L88.2646 240.573C109.984 285.24 143.514 346.694 195.503 312.718Z" fill="url(#paint1_linear_59_15041)"/>
<path d="M172.067 103.041C155.161 114.091 156.388 145.774 155.302 177.577C153.824 220.961 153.824 220.961 153.824 220.961L181.682 278.221C187.778 290.748 194.721 300.842 201.816 308.589C206.9 303.015 209.997 293.617 209.921 279.905L209.888 261.043L209.823 212.313L209.78 212.215L209.725 162.224L209.682 141.363C209.638 127.13 213.137 117.72 218.7 112.451C200.544 92.5565 185.931 93.969 172.067 103.041Z" fill="url(#paint2_linear_59_15041)"/>
<path d="M248.267 317.618C265.173 306.568 263.945 274.885 265.032 243.083C266.509 199.698 266.509 199.698 266.509 199.698L238.651 142.439C232.556 129.911 225.613 119.817 218.518 112.07C213.433 117.644 209.641 126.956 209.717 140.667L209.967 279.209C210.011 293.443 207.218 302.95 201.645 308.209C219.789 328.103 234.403 326.679 248.267 317.618Z" fill="url(#paint3_linear_59_15041)"/>
<defs>
<linearGradient id="paint0_linear_59_15041" x1="353.982" y1="291.232" x2="244.431" y2="96.9754" gradientUnits="userSpaceOnUse">
<stop stop-color="#3C38E0"/>
<stop offset="1" stop-color="#26DEE0"/>
</linearGradient>
<linearGradient id="paint1_linear_59_15041" x1="66.6121" y1="129.604" x2="176.176" y2="323.882" gradientUnits="userSpaceOnUse">
<stop stop-color="#3C38E0"/>
<stop offset="1" stop-color="#2623E0"/>
</linearGradient>
<linearGradient id="paint2_linear_59_15041" x1="223.083" y1="70.3636" x2="161.536" y2="289" gradientUnits="userSpaceOnUse">
<stop stop-color="#3C38E0"/>
<stop offset="1" stop-color="#26DEE0"/>
</linearGradient>
<linearGradient id="paint3_linear_59_15041" x1="197.262" y1="350.246" x2="258.809" y2="131.609" gradientUnits="userSpaceOnUse">
<stop stop-color="#3C38E0"/>
<stop offset="1" stop-color="#2623E0"/>
</linearGradient>
</defs>
</svg>
