<svg width="336" height="336" viewBox="0 0 336 336" fill="none" xmlns="http://www.w3.org/2000/svg">
<path d="M176.699 70.09C183.794 77.8369 190.737 87.9307 196.832 100.458L262.632 235.675H335.298L290.262 138.106C269.618 95.6667 238.305 38.0594 190.639 61.5934C188.14 62.8212 181.056 65.9504 176.699 70.09Z" fill="url(#paint0_linear_111_15095)"/>
<path d="M234.611 69.9057L234.535 69.8187L234.622 69.7861L234.611 69.9057Z" fill="#00A14B"/>
<path d="M153.503 270.358C151.635 271.575 159.816 266.229 159.816 266.229C152.721 258.482 145.778 248.388 139.683 235.861L73.8946 100.644H0.707031L46.2646 198.213C67.984 242.88 101.514 304.333 153.503 270.358Z" fill="url(#paint1_linear_111_15095)"/>
<path d="M130.067 60.6811C113.161 71.731 114.388 103.414 113.302 135.216C111.824 178.601 111.824 178.601 111.824 178.601L139.682 235.86C145.778 248.388 152.721 258.482 159.816 266.229C164.9 260.655 167.997 251.256 167.921 237.545L167.888 218.683L167.823 169.952L167.78 169.854L167.725 119.864L167.682 99.0026C167.638 84.7692 171.137 75.3599 176.7 70.0903C158.544 50.1962 143.931 51.6086 130.067 60.6811Z" fill="url(#paint2_linear_111_15095)"/>
<path d="M206.267 275.258C223.173 264.208 221.945 232.525 223.032 200.722C224.509 157.338 224.509 157.338 224.509 157.338L196.651 100.078C190.556 87.5506 183.613 77.4568 176.518 69.71C171.433 75.2838 167.641 84.5953 167.717 98.3071L167.967 236.849C168.011 251.083 165.218 260.59 159.645 265.848C177.789 285.742 192.403 284.319 206.267 275.258Z" fill="url(#paint3_linear_111_15095)"/>
<defs>
<linearGradient id="paint0_linear_111_15095" x1="311.982" y1="248.872" x2="202.431" y2="54.615" gradientUnits="userSpaceOnUse">
<stop stop-color="#3C38E0"/>
<stop offset="1" stop-color="#26DEE0"/>
</linearGradient>
<linearGradient id="paint1_linear_111_15095" x1="24.6121" y1="87.2433" x2="134.176" y2="281.521" gradientUnits="userSpaceOnUse">
<stop stop-color="#3C38E0"/>
<stop offset="1" stop-color="#2623E0"/>
</linearGradient>
<linearGradient id="paint2_linear_111_15095" x1="181.083" y1="28.0032" x2="119.536" y2="246.64" gradientUnits="userSpaceOnUse">
<stop stop-color="#3C38E0"/>
<stop offset="1" stop-color="#26DEE0"/>
</linearGradient>
<linearGradient id="paint3_linear_111_15095" x1="155.262" y1="307.885" x2="216.809" y2="89.2489" gradientUnits="userSpaceOnUse">
<stop stop-color="#3C38E0"/>
<stop offset="1" stop-color="#2623E0"/>
</linearGradient>
</defs>
</svg>
